<svg xmlns="http://www.w3.org/2000/svg" xmlns:xlink="http://www.w3.org/1999/xlink" width="27.744384765625" height="26.5830078125" viewBox="0 0 27.744384765625 26.5830078125" fill="none">
<path     fill="#629F9F"  d="M26.0298 8.64489L19.9089 7.75557C19.2575 7.66092 18.6944 7.25171 18.403 6.66142L15.6657 1.11493C14.932 -0.371564 12.8124 -0.371564 12.0787 1.11493L9.34136 6.66142C9.05003 7.25171 8.48691 7.66091 7.83548 7.75556L1.71459 8.64489C0.0741448 8.88325 -0.580899 10.8993 0.606144 12.0564L5.0353 16.3736C5.50667 16.8331 5.72167 17.4951 5.6104 18.1439L4.56493 24.2402C4.28473 25.874 5.99953 27.1199 7.46678 26.3485L12.9415 23.4702C13.5241 23.1639 14.2202 23.1639 14.8029 23.4702L20.2776 26.3485C21.7449 27.1199 23.4597 25.874 23.1795 24.2402L22.134 18.1439C22.0227 17.4951 22.2377 16.8331 22.7091 16.3736L27.1382 12.0564C28.3253 10.8993 27.6702 8.88325 26.0298 8.64489Z">
</path>
</svg>
