<svg xmlns="http://www.w3.org/2000/svg" viewBox="0 0 24.3 25.15"><defs><style>.cls-1{fill:#333;}.cls-2{fill:none;stroke:#333;stroke-linecap:round;stroke-miterlimit:10;}</style></defs><title>资源 4</title><g id="图层_2" data-name="图层 2"><g id="图层_1-2" data-name="图层 1"><path class="cls-1" d="M12.15,1a8,8,0,0,1,8,8,7.94,7.94,0,0,1-2.35,5.67l-5.67,5.67L6.48,14.69A8,8,0,0,1,12.15,1m0-1A9,9,0,0,0,5.77,15.4l6.38,6.38,6.38-6.38A9,9,0,0,0,12.15,0Z"/><path class="cls-2" d="M6.6,19.61C3,20.06.5,21,.5,22c0,1.48,5.22,2.68,11.65,2.68S23.8,23.45,23.8,22c0-1-2.46-1.91-6.1-2.36"/><path class="cls-1" d="M12.15,6.84A2.59,2.59,0,1,1,9.56,9.43a2.59,2.59,0,0,1,2.59-2.59m0-1a3.59,3.59,0,1,0,3.59,3.59,3.59,3.59,0,0,0-3.59-3.59Z"/></g></g></svg>