<svg xmlns="http://www.w3.org/2000/svg" viewBox="0 0 31.16 34.28"><defs><style>.cls-1{fill:none;stroke:#333;stroke-miterlimit:10;stroke-width:2px;}</style></defs><title>资源 5</title><g id="图层_2" data-name="图层 2"><g id="图层_1-2" data-name="图层 1"><path class="cls-1" d="M29.84,13,19,1.3a1.13,1.13,0,0,0-1.53,0,1.21,1.21,0,0,0-.33.89v6.3A16.08,16.08,0,0,0,1,24.56,15.89,15.89,0,0,0,2.37,31c1.3-6.71,7.68-11.8,14.78-11.8v6.3a.94.94,0,0,0,.33.89.93.93,0,0,0,.8.32,1,1,0,0,0,.81-.4L29.84,14.71a1,1,0,0,0,.32-.81,1.74,1.74,0,0,0-.32-.89Z"/></g></g></svg>