<svg xmlns="http://www.w3.org/2000/svg" viewBox="0 0 31.78 30.33"><defs><style>.cls-1{fill:#333;}</style></defs><title>资源 5</title><g id="图层_2" data-name="图层 2"><g id="图层_1-2" data-name="图层 1"><path class="cls-1" d="M15.89,3.2l3,6a4.25,4.25,0,0,0,3.23,2.34l6.61,1L23.9,17.16A4.28,4.28,0,0,0,22.67,21l1.13,6.59-5.91-3.11a4.38,4.38,0,0,0-2-.49,4.31,4.31,0,0,0-2,.49L8,27.54,9.11,21a4.28,4.28,0,0,0-1.23-3.79L3.09,12.5l6.62-1a4.25,4.25,0,0,0,3.22-2.34l3-6m0-3.2A1,1,0,0,0,15,.59L11.14,8.3A2.25,2.25,0,0,1,9.42,9.55L.9,10.79a1,1,0,0,0-.58,1.79l6.16,6a2.29,2.29,0,0,1,.66,2L5.68,29.1a1.06,1.06,0,0,0,1,1.23,1.11,1.11,0,0,0,.49-.12l7.62-4a2.34,2.34,0,0,1,1.06-.26A2.38,2.38,0,0,1,17,26.2l7.61,4a1.14,1.14,0,0,0,.49.12,1.05,1.05,0,0,0,1-1.23l-1.46-8.48a2.31,2.31,0,0,1,.66-2l6.16-6a1,1,0,0,0-.58-1.79L22.36,9.55A2.27,2.27,0,0,1,20.64,8.3L16.83.59A1,1,0,0,0,15.89,0Z"/></g></g></svg>