<svg xmlns="http://www.w3.org/2000/svg" viewBox="0 0 46.88 46.88"><defs><style>.cls-1{fill:#007d7d;}</style></defs><title>资源 26</title><g id="图层_2" data-name="图层 2"><g id="图层_1_复制" data-name="图层 1_复制"><path class="cls-1" d="M34.05,28.61a3,3,0,0,0-4.16,0l-2.07,2.08c-1.18,1.18-5,0-8.31-3.32s-4.5-7.13-3.33-8.31h0L18.26,17a2.93,2.93,0,0,0,0-4.15L9.12,3.69A2.93,2.93,0,0,0,5,3.69L2.89,5.77a10,10,0,0,0-2.78,6A18.58,18.58,0,0,0,.9,19.33c1.62,5.52,5.28,11.33,10.3,16.35S22,44.35,27.54,46a20.43,20.43,0,0,0,5.74.9,14.06,14.06,0,0,0,1.83-.12,10,10,0,0,0,6-2.78l2.08-2.07a3,3,0,0,0,0-4.16Zm7.47,11.64-2.07,2.07c-2.35,2.35-6.34,2.84-11.24,1.4-5.15-1.51-10.6-5-15.35-9.71S4.67,23.82,3.15,18.67c-1.44-4.9-.94-8.9,1.4-11.24L6.63,5.35a.59.59,0,0,1,.42-.17.58.58,0,0,1,.41.17l9.14,9.14a.59.59,0,0,1,.17.42.58.58,0,0,1-.17.41L14.52,17.4c-1.22,1.22-1.46,3.17-.68,5.5a16.25,16.25,0,0,0,4,6.13A16.5,16.5,0,0,0,24,33a7.84,7.84,0,0,0,2.49.44,4.13,4.13,0,0,0,3-1.13l2.07-2.07a.57.57,0,0,1,.83,0l9.14,9.13a.58.58,0,0,1,0,.84ZM26.9,8.22a1.18,1.18,0,0,1,.35-.83,1.16,1.16,0,0,1,.83-.34A11.76,11.76,0,0,1,39.83,18.8a1.18,1.18,0,0,1-2.35,0,9.41,9.41,0,0,0-9.4-9.4,1.16,1.16,0,0,1-.83-.34,1.19,1.19,0,0,1-.35-.84Zm0,7a1.18,1.18,0,0,1,.35-.83,1.16,1.16,0,0,1,.83-.34,4.71,4.71,0,0,1,4.7,4.7,1.18,1.18,0,0,1-2.35,0,2.36,2.36,0,0,0-2.35-2.35,1.16,1.16,0,0,1-.83-.34,1.21,1.21,0,0,1-.35-.84Zm20,3.53a1.18,1.18,0,0,1-2.35,0A16.47,16.47,0,0,0,28.08,2.35,1.18,1.18,0,0,1,26.9,1.17,1.18,1.18,0,0,1,28.08,0a18.8,18.8,0,0,1,18.8,18.8Z"/></g></g></svg>