<svg xmlns="http://www.w3.org/2000/svg" viewBox="0 0 47.73 45.55"><defs><style>.cls-1{fill:#f9de3a;}</style></defs><title>资源 1</title><g id="图层_2" data-name="图层 2"><g id="图层_1-2" data-name="图层 1"><path class="cls-1" d="M25.28.88,31,12.47a3.42,3.42,0,0,0,2.59,1.88l12.79,1.86a1.58,1.58,0,0,1,.88,2.69l-9.26,9a3.44,3.44,0,0,0-1,3L39.2,43.71a1.58,1.58,0,0,1-2.29,1.66l-11.45-6a3.46,3.46,0,0,0-3.19,0l-11.44,6a1.58,1.58,0,0,1-2.29-1.66L10.72,31a3.44,3.44,0,0,0-1-3l-9.26-9a1.58,1.58,0,0,1,.87-2.69l12.8-1.86a3.42,3.42,0,0,0,2.58-1.88L22.45.88A1.58,1.58,0,0,1,25.28.88Z"/></g></g></svg>